<?xml version="1.0" ?><svg data-name="Layer 3" id="Layer_3" viewBox="0 0 32 32" xmlns="http://www.w3.org/2000/svg"><defs><style>.cls-1{fill:none;stroke:#3c4044;stroke-linecap:round;stroke-linejoin:round;}</style></defs><title/><rect class="cls-1" height="7.54" width="3.21" x="4" y="21.14"/><path class="cls-1" d="M7.21,21.78l2.63-1.53a4.57,4.57,0,0,1,2-.61l5.33-.3v1.18A1.93,1.93,0,0,1,16,22.32l-2.67,1,7.14,1.08L26.3,21a1.07,1.07,0,0,1,1.46.38h0a1.08,1.08,0,0,1-.34,1.45L17.93,29,7.21,28Z"/><polygon class="cls-1" points="24.61 17.7 12.74 17.7 13.84 8.51 23.5 8.51 24.61 17.7"/><path class="cls-1" d="M15.77,10.67V7.21a2,2,0,0,1,.77-1.5A3.35,3.35,0,0,1,18.67,5h0a3.39,3.39,0,0,1,2,.65,2,2,0,0,1,.85,1.56v3.46"/></svg>